<svg id="Layer_1" data-name="Layer 1" xmlns="http://www.w3.org/2000/svg" viewBox="0 0 664 360"><defs><style>.cls-1{fill:#fff;}.cls-2,.cls-3{fill:#ff7f30;}.cls-3{fill-rule:evenodd;}</style></defs><title>Artboard 1</title><path class="cls-1" d="M59.22,183.13a21.58,21.58,0,0,1-6.1-.75,11.38,11.38,0,0,1-4.1-2.09,7.89,7.89,0,0,1-2.3-3.21A11.28,11.28,0,0,1,46,173V151.17a11.44,11.44,0,0,1,.72-4.1,7.88,7.88,0,0,1,2.3-3.23,11.23,11.23,0,0,1,4.1-2.09,21.58,21.58,0,0,1,6.1-.75H93.15v6.22H59.22q-5.26,0-5.26,3.89V173c0,2.6,1.75,3.89,5.26,3.89H93.15v6.23Zm544.73,0-9.87-18.79h-22.2v18.79h-8V141H599.7a21.6,21.6,0,0,1,6.11.75,11.23,11.23,0,0,1,4.1,2.09,8,8,0,0,1,2.3,3.23,11.44,11.44,0,0,1,.72,4.1v3a9.91,9.91,0,0,1-2.4,6.8q-2.38,2.72-8,3.26l9.93,18.91Zm1-32q0-3.88-5.27-3.89H571.88v10.89H599.7q5.26,0,5.27-3.88v-3.12Zm-89.58,32a21.65,21.65,0,0,1-6.11-.75,11.25,11.25,0,0,1-4.09-2.09,7.91,7.91,0,0,1-2.31-3.21,11.28,11.28,0,0,1-.72-4.12V151.17a11.44,11.44,0,0,1,.72-4.1,7.91,7.91,0,0,1,2.31-3.23,11.1,11.1,0,0,1,4.09-2.09,21.65,21.65,0,0,1,6.11-.75h27.82a21.6,21.6,0,0,1,6.11.75,11.23,11.23,0,0,1,4.1,2.09,8,8,0,0,1,2.3,3.23,11.44,11.44,0,0,1,.72,4.1V173a11.28,11.28,0,0,1-.72,4.12,8,8,0,0,1-2.3,3.21,11.38,11.38,0,0,1-4.1,2.09,21.6,21.6,0,0,1-6.11.75Zm33.09-32c0-2.59-1.75-3.89-5.27-3.89H515.39q-5.26,0-5.27,3.89V173c0,2.6,1.76,3.89,5.27,3.89h27.82c3.52,0,5.27-1.29,5.27-3.89v-21.9Zm-79.11,32V147.22H447.29V141h51.52v6.22H477.33v35.91Zm-60.2,0a21.53,21.53,0,0,1-6.1-.75,11.3,11.3,0,0,1-4.1-2.09,7.91,7.91,0,0,1-2.31-3.21A11.49,11.49,0,0,1,396,173V151.17a11.65,11.65,0,0,1,.71-4.1,7.91,7.91,0,0,1,2.31-3.23,11.15,11.15,0,0,1,4.1-2.09,21.53,21.53,0,0,1,6.1-.75H443.1v6.22H409.17q-5.26,0-5.26,3.89V173c0,2.6,1.75,3.89,5.26,3.89H443.1v6.23Zm-89.94,0-9.87-18.79h-22.2v18.79h-8V141H315a21.6,21.6,0,0,1,6.11.75,11.23,11.23,0,0,1,4.1,2.09,8,8,0,0,1,2.3,3.23,11.44,11.44,0,0,1,.72,4.1v3a9.91,9.91,0,0,1-2.4,6.8c-1.59,1.81-4.27,2.9-8,3.26l9.93,18.91Zm1-32q0-3.88-5.27-3.89H287.16v10.89H315q5.26,0,5.27-3.88v-3.12Zm-75.82,32V147.22H222.35V141h51.52v6.22H252.39v35.91Zm-31.18,0-44.94-32.79v32.79h-7V141h6.94l41.89,31.3V141h7v42.13Zm-100.47,0a21.53,21.53,0,0,1-6.1-.75,11.3,11.3,0,0,1-4.1-2.09,7.8,7.8,0,0,1-2.3-3.21,11.28,11.28,0,0,1-.72-4.12V151.17a11.44,11.44,0,0,1,.72-4.1,7.79,7.79,0,0,1,2.3-3.23,11.15,11.15,0,0,1,4.1-2.09,21.53,21.53,0,0,1,6.1-.75h27.83a21.53,21.53,0,0,1,6.1.75,11.15,11.15,0,0,1,4.1,2.09,7.79,7.79,0,0,1,2.3,3.23,11.44,11.44,0,0,1,.72,4.1V173a11.28,11.28,0,0,1-.72,4.12,7.8,7.8,0,0,1-2.3,3.21,11.3,11.3,0,0,1-4.1,2.09,21.53,21.53,0,0,1-6.1.75Zm33.09-32q0-3.88-5.26-3.89H112.78q-5.27,0-5.26,3.89V173c0,2.6,1.75,3.89,5.26,3.89h27.83c3.51,0,5.26-1.29,5.26-3.89v-21.9Z"/><polygon class="cls-2" points="383.38 183.13 361.66 149.2 339.58 183.13 330.72 183.13 358.73 141 364.53 141 377.18 160.15 377.18 154.33 385.14 154.33 385.14 172.2 392.36 183.13 383.38 183.13 383.38 183.13"/><path class="cls-1" d="M239,220.19,215.32,203v17.24h-3.68V198h3.65l22,16.46V198H241v22.15ZM46,207H188.08v4.19H46V207Zm424.85,0H612.93v4.19H470.85V207ZM286,220.19l-11.43-17.84L263,220.19H258.3L273,198h3.05l14.63,22.15Zm26.89,0V201.31H301.27V198h27.09v3.27H317.07v18.88Zm33.73,0V198h4.19v22.15Zm30.52,0a11.45,11.45,0,0,1-3.21-.39,5.94,5.94,0,0,1-2.16-1.1,4.19,4.19,0,0,1-1.21-1.69,6,6,0,0,1-.37-2.17V203.39a6,6,0,0,1,.37-2.15,4.09,4.09,0,0,1,1.21-1.7,6,6,0,0,1,2.16-1.11,11.45,11.45,0,0,1,3.21-.39h14.63a11.45,11.45,0,0,1,3.21.39,5.82,5.82,0,0,1,2.15,1.11,4,4,0,0,1,1.21,1.7,5.79,5.79,0,0,1,.38,2.15v11.45a5.78,5.78,0,0,1-.38,2.17,4.1,4.1,0,0,1-1.21,1.69,5.81,5.81,0,0,1-2.15,1.1,11.45,11.45,0,0,1-3.21.39Zm17.4-16.83c0-1.36-.93-2.05-2.77-2.05H377.13c-1.85,0-2.77.69-2.77,2.05v11.51c0,1.37.92,2,2.77,2h14.63c1.84,0,2.77-.68,2.77-2V203.36Zm50.72,16.83L421.61,203v17.24h-3.68V198h3.65l22,16.46V198h3.68v22.15Z"/><path class="cls-3" d="M354.15,183.59h6.45v-6.45h-6.45v6.45Zm8.32-8.27h6.46v-6.45h-6.46v6.45Zm-8.32,0h6.45v-6.45h-6.45v6.45Zm8.32,8.27h6.46v-6.45h-6.46v6.45Z"/></svg>